<svg xmlns="http://www.w3.org/2000/svg" viewBox="0 0 130 130"><path d="M65 0a65 65 0 1065 65A65 65 0 0065 0zm0 123.54A58.54 58.54 0 11123.54 65 58.61 58.61 0 0165 123.54zm23.77-44.82a18.87 18.87 0 01-7 14.85 24.48 24.48 0 01-10.45 4.84v9.07a1.87 1.87 0 01-2 1.73h-10.3a1.86 1.86 0 01-2-1.73V98.2c-9.86-2.39-16.5-9.46-17.34-18.94a2 2 0 012.15-2h10a2.07 2.07 0 012.13 1.64c0 .25.09.51.14.76A7.71 7.71 0 0058.27 85l.23.14a12 12 0 006.12 1.44c6.15 0 9.82-2.92 9.82-7.82 0-5.84-8.38-9-13.37-10.39H61c-7.48-2.2-21.39-6.27-21.39-19.91 0-9.06 7.44-16.66 17.43-18.72v-8.9a1.87 1.87 0 012-1.73h10.3a1.87 1.87 0 012 1.73v9.63c8.06 2.62 13.59 8.88 14.44 16.92a2 2 0 01-2.15 2H73.44a2.08 2.08 0 01-2.12-1.58 6.81 6.81 0 00-1.71-3.58 8.57 8.57 0 00-5.53-2.54c-.39 0-.77-.06-1.17-.07h-.48a9.7 9.7 0 00-6.42 2.18 5.91 5.91 0 00-2.2 4.54c0 3.87 4.12 5.79 11.71 8 15.44 4.62 23.25 12.13 23.25 22.38z"/></svg>