<svg 
 xmlns="http://www.w3.org/2000/svg"
 xmlns:xlink="http://www.w3.org/1999/xlink"
 width="51px" height="51px">
<defs>
<linearGradient id="PSgrad_0" x1="43.837%" x2="0%" y1="89.879%" y2="0%">
  <stop offset="0%" stop-color="rgb(0,155,162)" stop-opacity="1" />
  <stop offset="51%" stop-color="rgb(0,155,162)" stop-opacity="1" />
  <stop offset="52%" stop-color="rgb(238,73,97)" stop-opacity="1" />
  <stop offset="100%" stop-color="rgb(238,73,97)" stop-opacity="1" />
</linearGradient>

</defs>
<path fill-rule="evenodd"  fill="rgb(0, 0, 0)"
 d="M45.705,31.355 C42.143,34.851 37.495,36.601 32.874,36.601 C28.777,36.601 24.701,35.227 21.424,32.478 L19.056,34.718 L22.543,38.202 C23.167,38.822 23.167,39.820 22.543,40.441 C22.234,40.753 21.795,40.908 21.360,40.908 C20.927,40.908 20.492,40.753 20.179,40.441 L19.056,39.446 L8.222,50.273 C7.913,50.584 7.475,50.738 7.041,50.738 C6.606,50.738 6.171,50.584 5.858,50.273 L1.377,45.793 C0.751,45.168 0.751,44.052 1.377,43.428 L12.211,32.600 L11.210,31.483 C10.590,30.859 10.590,29.741 11.210,29.116 C11.523,28.805 11.962,28.651 12.380,28.651 C12.799,28.651 13.207,28.805 13.456,29.116 L16.943,32.600 L19.305,30.238 C13.329,23.144 13.704,12.688 20.302,5.969 C23.851,2.486 28.460,0.745 33.054,0.745 C37.641,0.745 42.218,2.486 45.705,5.969 C52.681,12.939 52.681,24.388 45.705,31.355 ZM14.452,34.841 L4.736,44.548 L7.103,46.911 L16.815,37.205 L14.452,34.841 ZM43.341,8.336 C40.475,5.473 36.709,4.043 32.942,4.043 C29.175,4.043 25.409,5.473 22.543,8.336 C16.815,14.061 16.815,23.394 22.543,29.116 C25.409,31.981 29.175,33.410 32.942,33.410 C36.709,33.410 40.475,31.981 43.341,29.116 C49.196,23.394 49.196,14.061 43.341,8.336 ZM41.299,28.480 L24.697,28.480 C23.813,28.480 23.060,27.860 23.060,26.869 C23.060,23.157 25.199,20.061 28.216,18.329 C26.960,17.092 26.333,15.485 26.333,13.875 C26.333,10.284 29.350,7.313 32.872,7.313 C36.516,7.313 39.539,10.284 39.539,13.875 C39.539,15.485 38.783,17.092 37.650,18.329 C40.796,20.061 42.808,23.157 42.808,26.869 C42.808,27.738 42.177,28.480 41.299,28.480 ZM32.872,10.779 C31.235,10.779 29.602,12.142 29.602,13.999 C29.602,15.855 30.983,17.218 32.872,17.218 C34.883,17.218 36.266,15.855 36.266,13.999 C36.266,12.142 34.755,10.779 32.872,10.779 ZM32.872,20.435 C29.977,20.435 27.211,22.537 26.585,25.385 L39.411,25.385 C38.533,22.537 36.013,20.435 32.872,20.435 Z"/>
<path fill="url(#PSgrad_0)"
 d="M45.705,31.355 C42.143,34.851 37.495,36.601 32.874,36.601 C28.777,36.601 24.701,35.227 21.424,32.478 L19.056,34.718 L22.543,38.202 C23.167,38.822 23.167,39.820 22.543,40.441 C22.234,40.753 21.795,40.908 21.360,40.908 C20.927,40.908 20.492,40.753 20.179,40.441 L19.056,39.446 L8.222,50.273 C7.913,50.584 7.475,50.738 7.041,50.738 C6.606,50.738 6.171,50.584 5.858,50.273 L1.377,45.793 C0.751,45.168 0.751,44.052 1.377,43.428 L12.211,32.600 L11.210,31.483 C10.590,30.859 10.590,29.741 11.210,29.116 C11.523,28.805 11.962,28.651 12.380,28.651 C12.799,28.651 13.207,28.805 13.456,29.116 L16.943,32.600 L19.305,30.238 C13.329,23.144 13.704,12.688 20.302,5.969 C23.851,2.486 28.460,0.745 33.054,0.745 C37.641,0.745 42.218,2.486 45.705,5.969 C52.681,12.939 52.681,24.388 45.705,31.355 ZM14.452,34.841 L4.736,44.548 L7.103,46.911 L16.815,37.205 L14.452,34.841 ZM43.341,8.336 C40.475,5.473 36.709,4.043 32.942,4.043 C29.175,4.043 25.409,5.473 22.543,8.336 C16.815,14.061 16.815,23.394 22.543,29.116 C25.409,31.981 29.175,33.410 32.942,33.410 C36.709,33.410 40.475,31.981 43.341,29.116 C49.196,23.394 49.196,14.061 43.341,8.336 ZM41.299,28.480 L24.697,28.480 C23.813,28.480 23.060,27.860 23.060,26.869 C23.060,23.157 25.199,20.061 28.216,18.329 C26.960,17.092 26.333,15.485 26.333,13.875 C26.333,10.284 29.350,7.313 32.872,7.313 C36.516,7.313 39.539,10.284 39.539,13.875 C39.539,15.485 38.783,17.092 37.650,18.329 C40.796,20.061 42.808,23.157 42.808,26.869 C42.808,27.738 42.177,28.480 41.299,28.480 ZM32.872,10.779 C31.235,10.779 29.602,12.142 29.602,13.999 C29.602,15.855 30.983,17.218 32.872,17.218 C34.883,17.218 36.266,15.855 36.266,13.999 C36.266,12.142 34.755,10.779 32.872,10.779 ZM32.872,20.435 C29.977,20.435 27.211,22.537 26.585,25.385 L39.411,25.385 C38.533,22.537 36.013,20.435 32.872,20.435 Z"/>
</svg>