<svg 
 xmlns="http://www.w3.org/2000/svg"
 xmlns:xlink="http://www.w3.org/1999/xlink"
 width="52px" height="50px">
<defs>
<linearGradient id="PSgrad_0" x1="43.837%" x2="0%" y1="89.879%" y2="0%">
  <stop offset="0%" stop-color="rgb(0,155,162)" stop-opacity="1" />
  <stop offset="51%" stop-color="rgb(0,155,162)" stop-opacity="1" />
  <stop offset="52%" stop-color="rgb(238,73,97)" stop-opacity="1" />
  <stop offset="100%" stop-color="rgb(238,73,97)" stop-opacity="1" />
</linearGradient>

</defs>
<path fill-rule="evenodd"  fill="rgb(0, 0, 0)"
 d="M51.785,8.050 L51.785,45.424 C51.785,47.800 49.720,49.784 47.386,49.784 L5.439,49.784 C2.965,49.784 0.900,47.800 0.900,45.424 L0.900,8.050 C0.900,5.673 2.965,3.694 5.439,3.694 L6.950,3.694 L6.950,2.239 C6.950,1.449 7.640,0.790 8.464,0.790 C9.426,0.790 10.114,1.449 10.114,2.239 L10.114,3.694 L16.025,3.694 L16.025,2.239 C16.025,1.449 16.715,0.790 17.681,0.790 C18.505,0.790 19.189,1.449 19.189,2.239 L19.189,3.694 L25.241,3.694 L25.241,2.239 C25.241,1.449 25.930,0.790 26.756,0.790 C27.580,0.790 28.266,1.449 28.266,2.239 L28.266,3.694 L34.320,3.694 L34.320,2.239 C34.320,1.449 35.006,0.790 35.831,0.790 C36.655,0.790 37.345,1.449 37.345,2.239 L37.345,3.694 L43.395,3.694 L43.395,2.239 C43.395,1.449 44.081,0.790 44.909,0.790 C45.871,0.790 46.559,1.449 46.559,2.239 L46.559,3.694 L48.070,3.694 C50.411,3.694 52.472,5.673 51.785,8.050 ZM4.615,45.424 C4.615,46.350 5.300,47.009 6.126,47.009 L48.070,47.009 C48.760,47.009 49.445,46.350 49.585,45.688 L49.585,44.238 L4.615,44.238 L4.615,45.424 ZM4.613,41.198 L49.585,41.198 L49.585,15.314 L4.613,15.314 L4.613,41.198 ZM50.271,8.050 C50.271,7.258 49.585,6.465 48.760,6.465 L47.246,6.465 L47.246,8.050 C47.246,8.843 46.559,9.503 45.735,9.503 C44.770,9.503 44.081,8.843 44.081,8.050 L44.081,6.465 L38.171,6.465 L38.171,8.050 C38.171,8.843 37.481,9.503 36.521,9.503 C35.695,9.503 35.006,8.843 35.006,8.050 L35.006,6.465 L28.954,6.465 L28.954,8.050 C28.954,8.843 28.266,9.503 27.440,9.503 C26.616,9.503 25.930,8.843 25.930,8.050 L25.930,6.465 L19.880,6.465 L19.880,8.050 C19.880,8.843 19.189,9.503 18.365,9.503 C17.405,9.503 16.715,8.843 16.715,8.050 L16.715,6.465 L10.801,6.465 L10.801,8.050 C10.801,8.843 10.114,9.503 9.151,9.503 C8.325,9.503 7.640,8.843 7.640,8.050 L7.640,6.465 L6.126,6.465 C5.300,6.465 4.615,7.258 4.615,8.050 L5.300,8.050 L5.300,12.280 L50.271,12.280 L50.271,8.050 ZM42.283,30.889 L23.310,30.889 C22.605,30.889 22.018,30.314 22.018,29.626 C22.018,28.823 22.605,28.252 23.310,28.252 L42.283,28.252 C43.104,28.252 43.694,28.823 43.694,29.626 C43.694,30.314 43.104,30.889 42.283,30.889 ZM23.330,23.301 L37.445,23.301 C38.161,23.301 38.757,23.990 38.757,24.676 C38.757,25.364 38.161,25.935 37.445,25.935 L23.330,25.935 C22.613,25.935 22.018,25.364 22.018,24.676 C22.018,23.990 22.613,23.301 23.330,23.301 ZM42.283,20.653 L23.310,20.653 C22.605,20.653 22.018,20.058 22.018,19.340 C22.018,18.622 22.605,18.021 23.310,18.021 L42.283,18.021 C43.104,18.021 43.694,18.622 43.694,19.340 C43.694,20.058 43.104,20.653 42.283,20.653 ZM18.296,36.169 L13.235,36.169 C12.410,36.169 11.819,35.576 11.819,34.751 L11.819,29.669 C11.819,28.841 12.410,28.251 13.235,28.251 L18.296,28.251 C19.122,28.251 19.709,28.841 19.709,29.669 L19.709,34.751 C19.709,35.576 19.122,36.169 18.296,36.169 ZM16.884,30.971 L14.414,30.971 L14.414,33.449 L16.884,33.449 L16.884,30.971 ZM18.296,25.935 L13.235,25.935 C12.410,25.935 11.819,25.338 11.819,24.618 L11.819,19.343 C11.819,18.623 12.410,18.021 13.235,18.021 L18.296,18.021 C19.122,18.021 19.709,18.623 19.709,19.343 L19.709,24.618 C19.709,25.338 19.122,25.935 18.296,25.935 ZM16.884,20.659 L14.414,20.659 L14.414,23.179 L16.884,23.179 L16.884,20.659 ZM23.330,33.529 L37.445,33.529 C38.161,33.529 38.757,34.104 38.757,34.792 C38.757,35.593 38.161,36.169 37.445,36.169 L23.330,36.169 C22.613,36.169 22.018,35.593 22.018,34.792 C22.018,34.104 22.613,33.529 23.330,33.529 Z"/>
<path fill="url(#PSgrad_0)"
 d="M51.785,8.050 L51.785,45.424 C51.785,47.800 49.720,49.784 47.386,49.784 L5.439,49.784 C2.965,49.784 0.900,47.800 0.900,45.424 L0.900,8.050 C0.900,5.673 2.965,3.694 5.439,3.694 L6.950,3.694 L6.950,2.239 C6.950,1.449 7.640,0.790 8.464,0.790 C9.426,0.790 10.114,1.449 10.114,2.239 L10.114,3.694 L16.025,3.694 L16.025,2.239 C16.025,1.449 16.715,0.790 17.681,0.790 C18.505,0.790 19.189,1.449 19.189,2.239 L19.189,3.694 L25.241,3.694 L25.241,2.239 C25.241,1.449 25.930,0.790 26.756,0.790 C27.580,0.790 28.266,1.449 28.266,2.239 L28.266,3.694 L34.320,3.694 L34.320,2.239 C34.320,1.449 35.006,0.790 35.831,0.790 C36.655,0.790 37.345,1.449 37.345,2.239 L37.345,3.694 L43.395,3.694 L43.395,2.239 C43.395,1.449 44.081,0.790 44.909,0.790 C45.871,0.790 46.559,1.449 46.559,2.239 L46.559,3.694 L48.070,3.694 C50.411,3.694 52.472,5.673 51.785,8.050 ZM4.615,45.424 C4.615,46.350 5.300,47.009 6.126,47.009 L48.070,47.009 C48.760,47.009 49.445,46.350 49.585,45.688 L49.585,44.238 L4.615,44.238 L4.615,45.424 ZM4.613,41.198 L49.585,41.198 L49.585,15.314 L4.613,15.314 L4.613,41.198 ZM50.271,8.050 C50.271,7.258 49.585,6.465 48.760,6.465 L47.246,6.465 L47.246,8.050 C47.246,8.843 46.559,9.503 45.735,9.503 C44.770,9.503 44.081,8.843 44.081,8.050 L44.081,6.465 L38.171,6.465 L38.171,8.050 C38.171,8.843 37.481,9.503 36.521,9.503 C35.695,9.503 35.006,8.843 35.006,8.050 L35.006,6.465 L28.954,6.465 L28.954,8.050 C28.954,8.843 28.266,9.503 27.440,9.503 C26.616,9.503 25.930,8.843 25.930,8.050 L25.930,6.465 L19.880,6.465 L19.880,8.050 C19.880,8.843 19.189,9.503 18.365,9.503 C17.405,9.503 16.715,8.843 16.715,8.050 L16.715,6.465 L10.801,6.465 L10.801,8.050 C10.801,8.843 10.114,9.503 9.151,9.503 C8.325,9.503 7.640,8.843 7.640,8.050 L7.640,6.465 L6.126,6.465 C5.300,6.465 4.615,7.258 4.615,8.050 L5.300,8.050 L5.300,12.280 L50.271,12.280 L50.271,8.050 ZM42.283,30.889 L23.310,30.889 C22.605,30.889 22.018,30.314 22.018,29.626 C22.018,28.823 22.605,28.252 23.310,28.252 L42.283,28.252 C43.104,28.252 43.694,28.823 43.694,29.626 C43.694,30.314 43.104,30.889 42.283,30.889 ZM23.330,23.301 L37.445,23.301 C38.161,23.301 38.757,23.990 38.757,24.676 C38.757,25.364 38.161,25.935 37.445,25.935 L23.330,25.935 C22.613,25.935 22.018,25.364 22.018,24.676 C22.018,23.990 22.613,23.301 23.330,23.301 ZM42.283,20.653 L23.310,20.653 C22.605,20.653 22.018,20.058 22.018,19.340 C22.018,18.622 22.605,18.021 23.310,18.021 L42.283,18.021 C43.104,18.021 43.694,18.622 43.694,19.340 C43.694,20.058 43.104,20.653 42.283,20.653 ZM18.296,36.169 L13.235,36.169 C12.410,36.169 11.819,35.576 11.819,34.751 L11.819,29.669 C11.819,28.841 12.410,28.251 13.235,28.251 L18.296,28.251 C19.122,28.251 19.709,28.841 19.709,29.669 L19.709,34.751 C19.709,35.576 19.122,36.169 18.296,36.169 ZM16.884,30.971 L14.414,30.971 L14.414,33.449 L16.884,33.449 L16.884,30.971 ZM18.296,25.935 L13.235,25.935 C12.410,25.935 11.819,25.338 11.819,24.618 L11.819,19.343 C11.819,18.623 12.410,18.021 13.235,18.021 L18.296,18.021 C19.122,18.021 19.709,18.623 19.709,19.343 L19.709,24.618 C19.709,25.338 19.122,25.935 18.296,25.935 ZM16.884,20.659 L14.414,20.659 L14.414,23.179 L16.884,23.179 L16.884,20.659 ZM23.330,33.529 L37.445,33.529 C38.161,33.529 38.757,34.104 38.757,34.792 C38.757,35.593 38.161,36.169 37.445,36.169 L23.330,36.169 C22.613,36.169 22.018,35.593 22.018,34.792 C22.018,34.104 22.613,33.529 23.330,33.529 Z"/>
</svg>