<svg 
 xmlns="http://www.w3.org/2000/svg"
 xmlns:xlink="http://www.w3.org/1999/xlink"
 width="51px" height="49px">
<defs>
<linearGradient id="PSgrad_0" x1="43.837%" x2="0%" y1="89.879%" y2="0%">
  <stop offset="0%" stop-color="rgb(0,155,162)" stop-opacity="1" />
  <stop offset="51%" stop-color="rgb(0,155,162)" stop-opacity="1" />
  <stop offset="52%" stop-color="rgb(238,73,97)" stop-opacity="1" />
  <stop offset="100%" stop-color="rgb(238,73,97)" stop-opacity="1" />
</linearGradient>

</defs>
<path fill-rule="evenodd"  fill="rgb(0, 0, 0)"
 d="M45.677,38.643 C45.337,39.044 44.840,39.300 44.340,39.300 C43.943,39.300 43.545,39.135 43.216,38.766 L36.202,32.013 C35.589,31.412 35.464,30.689 35.957,30.084 C37.065,28.280 37.678,26.110 37.678,24.060 C37.678,18.635 33.741,14.057 28.576,12.732 C27.837,12.610 27.346,12.011 27.346,11.287 L27.346,1.643 C27.346,0.751 28.083,0.063 28.977,0.063 C29.047,0.063 29.117,0.068 29.193,0.078 C41.123,1.765 50.351,12.011 50.721,24.060 C50.721,29.363 48.874,34.423 45.677,38.643 ZM30.544,3.571 L30.544,10.201 C36.448,12.128 40.756,17.553 40.756,24.183 C40.756,26.471 40.265,28.762 39.155,30.689 L43.954,35.390 C46.047,32.013 47.153,28.158 47.277,24.060 C47.277,14.180 40.265,5.622 30.544,3.571 ZM30.579,19.943 C30.579,20.898 29.951,21.614 29.068,21.614 C28.061,21.614 27.307,20.898 27.307,19.943 C27.307,19.111 26.676,18.395 25.669,18.395 C24.789,18.395 24.034,19.111 24.034,19.943 C24.034,20.898 25.417,21.735 26.676,22.688 C28.437,23.881 30.579,25.312 30.579,27.936 C30.579,29.966 29.196,31.753 27.307,32.352 L27.307,33.424 C27.307,34.259 26.676,35.097 25.669,35.097 C24.789,35.097 24.034,34.259 24.034,33.424 L24.034,32.352 C22.146,31.635 20.634,29.966 20.634,27.936 C20.634,26.983 21.518,26.267 22.273,26.267 C23.028,26.267 23.782,26.983 23.782,27.936 C23.782,28.773 24.789,29.490 25.545,29.490 C26.300,29.490 27.180,28.773 27.180,27.936 C27.180,26.983 25.669,26.149 24.410,25.195 C22.777,24.002 20.511,22.571 20.511,19.943 C20.511,17.918 21.893,16.126 23.782,15.532 L23.782,14.457 C23.782,13.742 24.661,13.026 25.545,13.026 C26.552,13.026 27.307,13.742 27.307,14.457 L27.307,15.532 C29.196,16.249 30.579,17.918 30.579,19.943 ZM22.869,12.628 C17.457,13.941 13.767,18.610 13.767,23.871 C13.767,25.907 14.380,28.060 15.490,29.852 C15.734,30.453 15.610,31.288 15.243,31.766 L8.229,38.468 C7.889,38.794 7.475,38.950 7.065,38.950 C6.582,38.950 6.101,38.734 5.769,38.347 C2.445,34.159 0.724,29.256 0.724,23.871 C0.724,11.789 10.076,1.741 22.132,0.066 C22.995,0.066 23.979,0.785 24.099,1.503 L24.099,11.072 C24.099,11.911 23.608,12.507 22.869,12.628 ZM20.534,10.114 L20.534,3.655 C10.813,5.808 3.801,14.302 3.801,23.994 C3.801,28.060 5.031,31.887 7.125,35.236 L11.920,30.570 C11.060,28.538 10.443,26.264 10.443,23.994 C10.443,17.413 14.873,12.028 20.655,10.114 L20.534,10.114 ZM17.657,34.291 C18.002,33.960 18.385,33.812 18.761,33.812 C19.056,33.812 19.344,33.899 19.612,34.053 C21.288,34.923 23.173,35.496 25.071,35.496 C25.249,35.496 25.423,35.489 25.603,35.480 C27.803,35.480 29.882,34.886 31.713,33.816 C31.918,33.737 32.162,33.699 32.416,33.699 C32.923,33.699 33.466,33.858 33.792,34.173 L40.637,40.817 C41.369,41.529 41.250,42.599 40.392,43.189 C36.112,46.510 30.979,48.056 25.603,48.056 C20.225,48.056 15.213,46.510 10.932,43.310 C10.198,42.715 10.080,41.767 10.812,40.938 L17.657,34.291 ZM25.846,44.971 C29.758,44.971 33.792,43.902 37.090,41.886 L32.326,37.258 C30.247,38.208 27.923,38.801 25.846,38.801 C23.522,38.801 21.202,38.208 19.247,37.258 L14.479,41.886 C17.900,43.902 21.812,44.971 25.846,44.971 Z"/>
<path fill="url(#PSgrad_0)"
 d="M45.677,38.643 C45.337,39.044 44.840,39.300 44.340,39.300 C43.943,39.300 43.545,39.135 43.216,38.766 L36.202,32.013 C35.589,31.412 35.464,30.689 35.957,30.084 C37.065,28.280 37.678,26.110 37.678,24.060 C37.678,18.635 33.741,14.057 28.576,12.732 C27.837,12.610 27.346,12.011 27.346,11.287 L27.346,1.643 C27.346,0.751 28.083,0.063 28.977,0.063 C29.047,0.063 29.117,0.068 29.193,0.078 C41.123,1.765 50.351,12.011 50.721,24.060 C50.721,29.363 48.874,34.423 45.677,38.643 ZM30.544,3.571 L30.544,10.201 C36.448,12.128 40.756,17.553 40.756,24.183 C40.756,26.471 40.265,28.762 39.155,30.689 L43.954,35.390 C46.047,32.013 47.153,28.158 47.277,24.060 C47.277,14.180 40.265,5.622 30.544,3.571 ZM30.579,19.943 C30.579,20.898 29.951,21.614 29.068,21.614 C28.061,21.614 27.307,20.898 27.307,19.943 C27.307,19.111 26.676,18.395 25.669,18.395 C24.789,18.395 24.034,19.111 24.034,19.943 C24.034,20.898 25.417,21.735 26.676,22.688 C28.437,23.881 30.579,25.312 30.579,27.936 C30.579,29.966 29.196,31.753 27.307,32.352 L27.307,33.424 C27.307,34.259 26.676,35.097 25.669,35.097 C24.789,35.097 24.034,34.259 24.034,33.424 L24.034,32.352 C22.146,31.635 20.634,29.966 20.634,27.936 C20.634,26.983 21.518,26.267 22.273,26.267 C23.028,26.267 23.782,26.983 23.782,27.936 C23.782,28.773 24.789,29.490 25.545,29.490 C26.300,29.490 27.180,28.773 27.180,27.936 C27.180,26.983 25.669,26.149 24.410,25.195 C22.777,24.002 20.511,22.571 20.511,19.943 C20.511,17.918 21.893,16.126 23.782,15.532 L23.782,14.457 C23.782,13.742 24.661,13.026 25.545,13.026 C26.552,13.026 27.307,13.742 27.307,14.457 L27.307,15.532 C29.196,16.249 30.579,17.918 30.579,19.943 ZM22.869,12.628 C17.457,13.941 13.767,18.610 13.767,23.871 C13.767,25.907 14.380,28.060 15.490,29.852 C15.734,30.453 15.610,31.288 15.243,31.766 L8.229,38.468 C7.889,38.794 7.475,38.950 7.065,38.950 C6.582,38.950 6.101,38.734 5.769,38.347 C2.445,34.159 0.724,29.256 0.724,23.871 C0.724,11.789 10.076,1.741 22.132,0.066 C22.995,0.066 23.979,0.785 24.099,1.503 L24.099,11.072 C24.099,11.911 23.608,12.507 22.869,12.628 ZM20.534,10.114 L20.534,3.655 C10.813,5.808 3.801,14.302 3.801,23.994 C3.801,28.060 5.031,31.887 7.125,35.236 L11.920,30.570 C11.060,28.538 10.443,26.264 10.443,23.994 C10.443,17.413 14.873,12.028 20.655,10.114 L20.534,10.114 ZM17.657,34.291 C18.002,33.960 18.385,33.812 18.761,33.812 C19.056,33.812 19.344,33.899 19.612,34.053 C21.288,34.923 23.173,35.496 25.071,35.496 C25.249,35.496 25.423,35.489 25.603,35.480 C27.803,35.480 29.882,34.886 31.713,33.816 C31.918,33.737 32.162,33.699 32.416,33.699 C32.923,33.699 33.466,33.858 33.792,34.173 L40.637,40.817 C41.369,41.529 41.250,42.599 40.392,43.189 C36.112,46.510 30.979,48.056 25.603,48.056 C20.225,48.056 15.213,46.510 10.932,43.310 C10.198,42.715 10.080,41.767 10.812,40.938 L17.657,34.291 ZM25.846,44.971 C29.758,44.971 33.792,43.902 37.090,41.886 L32.326,37.258 C30.247,38.208 27.923,38.801 25.846,38.801 C23.522,38.801 21.202,38.208 19.247,37.258 L14.479,41.886 C17.900,43.902 21.812,44.971 25.846,44.971 Z"/>
</svg>