<svg 
 xmlns="http://www.w3.org/2000/svg"
 xmlns:xlink="http://www.w3.org/1999/xlink"
 width="44px" height="50px">
<defs>
<linearGradient id="PSgrad_0" x1="43.837%" x2="0%" y1="89.879%" y2="0%">
  <stop offset="0%" stop-color="rgb(0,155,162)" stop-opacity="1" />
  <stop offset="51%" stop-color="rgb(0,155,162)" stop-opacity="1" />
  <stop offset="52%" stop-color="rgb(238,73,97)" stop-opacity="1" />
  <stop offset="100%" stop-color="rgb(238,73,97)" stop-opacity="1" />
</linearGradient>

</defs>
<path fill-rule="evenodd"  fill="rgb(0, 0, 0)"
 d="M22.707,49.265 C22.462,49.385 22.336,49.385 22.216,49.385 C21.971,49.385 21.845,49.265 21.725,49.265 C8.825,45.245 0.714,33.671 0.714,20.638 L0.714,2.002 C0.714,1.124 1.478,0.439 2.316,0.439 C2.644,0.439 2.984,0.544 3.296,0.784 C6.369,2.853 9.438,4.071 12.511,4.071 C15.458,4.071 18.776,2.853 21.234,1.027 C21.541,0.784 21.908,0.661 22.263,0.661 C22.614,0.661 22.953,0.784 23.198,1.027 C25.656,2.853 29.220,4.071 32.043,4.071 C34.009,4.071 37.327,3.583 41.258,0.784 C41.566,0.518 41.921,0.393 42.260,0.393 C43.016,0.393 43.714,0.997 43.714,2.002 L43.714,20.638 C43.714,33.304 35.727,45.000 22.707,49.265 ZM40.520,5.044 C36.956,6.993 34.009,7.481 31.922,7.481 C28.849,7.481 25.040,6.262 22.216,4.438 C19.269,6.387 15.704,7.481 12.511,7.481 C9.562,7.481 6.614,6.507 3.913,5.044 L3.913,20.638 C3.913,32.086 11.282,42.321 22.216,46.094 C33.271,42.321 40.400,32.086 40.520,20.638 L40.520,5.044 ZM23.363,23.714 C25.054,24.945 27.231,26.545 27.231,29.128 C27.231,31.222 25.780,33.064 23.965,33.681 L23.965,34.788 C23.965,35.771 23.363,36.513 22.514,36.513 C21.548,36.513 20.822,35.771 20.822,34.788 L20.822,33.681 C19.011,32.944 17.678,31.222 17.678,29.128 C17.678,28.389 18.404,27.531 19.129,27.531 C19.979,27.531 20.702,28.144 20.702,29.128 C20.702,29.992 21.548,30.850 22.396,30.850 C23.121,30.850 23.847,29.992 23.847,29.128 C23.847,28.144 22.514,27.284 21.306,26.300 C19.613,25.070 17.560,23.593 17.560,21.009 C17.560,18.793 18.887,16.946 20.702,16.332 L20.702,15.224 C20.702,14.365 21.428,13.627 22.396,13.627 C23.121,13.627 23.847,14.365 23.847,15.224 L23.847,16.332 C25.658,17.071 26.989,18.793 26.989,21.009 C26.989,21.867 26.384,22.606 25.538,22.606 C24.572,22.606 23.847,21.867 23.847,21.009 C23.847,20.145 23.239,19.406 22.396,19.406 C21.548,19.406 20.822,20.145 20.822,21.009 C20.822,21.867 22.154,22.851 23.363,23.714 Z"/>
<path fill="url(#PSgrad_0)"
 d="M22.707,49.265 C22.462,49.385 22.336,49.385 22.216,49.385 C21.971,49.385 21.845,49.265 21.725,49.265 C8.825,45.245 0.714,33.671 0.714,20.638 L0.714,2.002 C0.714,1.124 1.478,0.439 2.316,0.439 C2.644,0.439 2.984,0.544 3.296,0.784 C6.369,2.853 9.438,4.071 12.511,4.071 C15.458,4.071 18.776,2.853 21.234,1.027 C21.541,0.784 21.908,0.661 22.263,0.661 C22.614,0.661 22.953,0.784 23.198,1.027 C25.656,2.853 29.220,4.071 32.043,4.071 C34.009,4.071 37.327,3.583 41.258,0.784 C41.566,0.518 41.921,0.393 42.260,0.393 C43.016,0.393 43.714,0.997 43.714,2.002 L43.714,20.638 C43.714,33.304 35.727,45.000 22.707,49.265 ZM40.520,5.044 C36.956,6.993 34.009,7.481 31.922,7.481 C28.849,7.481 25.040,6.262 22.216,4.438 C19.269,6.387 15.704,7.481 12.511,7.481 C9.562,7.481 6.614,6.507 3.913,5.044 L3.913,20.638 C3.913,32.086 11.282,42.321 22.216,46.094 C33.271,42.321 40.400,32.086 40.520,20.638 L40.520,5.044 ZM23.363,23.714 C25.054,24.945 27.231,26.545 27.231,29.128 C27.231,31.222 25.780,33.064 23.965,33.681 L23.965,34.788 C23.965,35.771 23.363,36.513 22.514,36.513 C21.548,36.513 20.822,35.771 20.822,34.788 L20.822,33.681 C19.011,32.944 17.678,31.222 17.678,29.128 C17.678,28.389 18.404,27.531 19.129,27.531 C19.979,27.531 20.702,28.144 20.702,29.128 C20.702,29.992 21.548,30.850 22.396,30.850 C23.121,30.850 23.847,29.992 23.847,29.128 C23.847,28.144 22.514,27.284 21.306,26.300 C19.613,25.070 17.560,23.593 17.560,21.009 C17.560,18.793 18.887,16.946 20.702,16.332 L20.702,15.224 C20.702,14.365 21.428,13.627 22.396,13.627 C23.121,13.627 23.847,14.365 23.847,15.224 L23.847,16.332 C25.658,17.071 26.989,18.793 26.989,21.009 C26.989,21.867 26.384,22.606 25.538,22.606 C24.572,22.606 23.847,21.867 23.847,21.009 C23.847,20.145 23.239,19.406 22.396,19.406 C21.548,19.406 20.822,20.145 20.822,21.009 C20.822,21.867 22.154,22.851 23.363,23.714 Z"/>
</svg>