<svg 
 xmlns="http://www.w3.org/2000/svg"
 xmlns:xlink="http://www.w3.org/1999/xlink"
 width="54px" height="49px">
<defs>
<linearGradient id="PSgrad_0" x1="43.837%" x2="0%" y1="89.879%" y2="0%">
  <stop offset="0%" stop-color="rgb(0,155,162)" stop-opacity="1" />
  <stop offset="51%" stop-color="rgb(0,155,162)" stop-opacity="1" />
  <stop offset="52%" stop-color="rgb(238,73,97)" stop-opacity="1" />
  <stop offset="100%" stop-color="rgb(238,73,97)" stop-opacity="1" />
</linearGradient>

</defs>
<path fill-rule="evenodd"  fill="rgb(0, 0, 0)"
 d="M36.177,48.394 C32.880,48.394 29.716,47.477 27.080,45.907 C24.178,47.348 20.223,48.394 15.870,48.394 C11.915,48.394 8.089,47.738 5.323,46.168 C2.024,44.600 0.179,42.245 0.443,40.024 L0.443,9.157 C0.443,3.922 7.695,0.393 16.000,0.393 C19.959,0.393 23.781,1.045 26.551,2.615 C29.716,4.183 31.562,6.538 31.562,8.896 L31.562,14.650 C33.014,14.126 34.463,13.994 36.177,13.994 C45.671,13.994 53.452,21.712 53.452,31.127 C53.452,40.676 45.671,48.394 36.177,48.394 ZM3.736,40.024 C3.736,42.245 9.014,45.122 15.870,45.122 C18.905,45.122 21.671,44.600 23.914,43.553 C22.333,41.985 21.015,40.024 19.959,37.932 C18.640,38.060 17.318,38.194 15.870,38.194 C11.782,38.194 7.035,37.408 3.736,35.055 L3.736,40.024 ZM19.169,27.727 C17.980,27.860 17.056,27.860 15.870,27.860 C10.056,27.860 6.018,26.353 3.872,24.937 L3.872,29.557 C3.872,32.173 9.672,34.793 16.000,34.793 C17.056,34.793 18.243,34.793 19.169,34.661 C19.034,33.482 18.905,32.436 18.905,31.388 C18.905,30.215 18.905,28.906 19.169,27.727 ZM15.870,3.922 C9.014,3.922 3.736,6.538 3.736,9.157 C3.736,11.512 9.408,14.126 15.870,14.126 C22.860,14.126 27.869,11.512 27.869,9.157 C27.869,6.671 22.860,3.922 15.870,3.922 ZM27.869,14.516 C24.572,16.741 19.959,17.656 15.870,17.656 C11.651,17.656 7.035,16.741 3.736,14.516 L3.736,19.096 C3.736,21.712 9.408,24.328 15.870,24.328 C17.318,24.328 18.905,24.328 20.353,23.937 C21.935,20.666 24.572,17.917 27.869,16.086 L27.869,14.516 ZM36.044,17.656 C28.398,17.656 22.198,23.676 22.198,31.388 C22.198,38.845 28.398,45.122 36.044,45.122 C43.561,45.122 49.890,38.845 49.890,31.388 C49.890,23.804 43.561,17.656 36.044,17.656 ZM39.252,28.480 C38.460,28.480 37.536,27.705 37.536,26.803 C37.536,25.773 36.877,24.997 35.953,24.997 C34.897,24.997 34.107,25.773 34.107,26.803 C34.107,27.705 35.559,28.737 36.877,29.642 C38.725,30.932 40.964,32.608 40.964,35.320 C40.964,37.514 39.516,39.448 37.536,40.094 L37.536,41.254 C37.536,42.286 36.877,43.060 35.953,43.060 C34.897,43.060 34.107,42.286 34.107,41.254 L34.107,40.094 C32.131,39.320 30.677,37.514 30.677,35.320 C30.677,34.287 31.469,33.514 32.395,33.514 C33.316,33.514 34.107,34.287 34.107,35.320 C34.107,36.224 34.897,37.126 35.953,37.126 C36.877,37.126 37.669,36.482 37.536,35.320 C37.536,34.287 36.086,33.382 34.768,32.350 C32.922,31.059 30.677,29.511 30.677,26.803 C30.677,24.481 32.131,22.544 34.107,21.902 L34.107,20.737 C34.107,19.832 34.897,19.059 35.953,19.059 C36.744,19.059 37.536,19.832 37.536,20.737 L37.536,21.902 C39.516,22.675 41.097,24.481 41.097,26.803 C41.097,27.705 40.172,28.480 39.252,28.480 Z"/>
<path fill="url(#PSgrad_0)"
 d="M36.177,48.394 C32.880,48.394 29.716,47.477 27.080,45.907 C24.178,47.348 20.223,48.394 15.870,48.394 C11.915,48.394 8.089,47.738 5.323,46.168 C2.024,44.600 0.179,42.245 0.443,40.024 L0.443,9.157 C0.443,3.922 7.695,0.393 16.000,0.393 C19.959,0.393 23.781,1.045 26.551,2.615 C29.716,4.183 31.562,6.538 31.562,8.896 L31.562,14.650 C33.014,14.126 34.463,13.994 36.177,13.994 C45.671,13.994 53.452,21.712 53.452,31.127 C53.452,40.676 45.671,48.394 36.177,48.394 ZM3.736,40.024 C3.736,42.245 9.014,45.122 15.870,45.122 C18.905,45.122 21.671,44.600 23.914,43.553 C22.333,41.985 21.015,40.024 19.959,37.932 C18.640,38.060 17.318,38.194 15.870,38.194 C11.782,38.194 7.035,37.408 3.736,35.055 L3.736,40.024 ZM19.169,27.727 C17.980,27.860 17.056,27.860 15.870,27.860 C10.056,27.860 6.018,26.353 3.872,24.937 L3.872,29.557 C3.872,32.173 9.672,34.793 16.000,34.793 C17.056,34.793 18.243,34.793 19.169,34.661 C19.034,33.482 18.905,32.436 18.905,31.388 C18.905,30.215 18.905,28.906 19.169,27.727 ZM15.870,3.922 C9.014,3.922 3.736,6.538 3.736,9.157 C3.736,11.512 9.408,14.126 15.870,14.126 C22.860,14.126 27.869,11.512 27.869,9.157 C27.869,6.671 22.860,3.922 15.870,3.922 ZM27.869,14.516 C24.572,16.741 19.959,17.656 15.870,17.656 C11.651,17.656 7.035,16.741 3.736,14.516 L3.736,19.096 C3.736,21.712 9.408,24.328 15.870,24.328 C17.318,24.328 18.905,24.328 20.353,23.937 C21.935,20.666 24.572,17.917 27.869,16.086 L27.869,14.516 ZM36.044,17.656 C28.398,17.656 22.198,23.676 22.198,31.388 C22.198,38.845 28.398,45.122 36.044,45.122 C43.561,45.122 49.890,38.845 49.890,31.388 C49.890,23.804 43.561,17.656 36.044,17.656 ZM39.252,28.480 C38.460,28.480 37.536,27.705 37.536,26.803 C37.536,25.773 36.877,24.997 35.953,24.997 C34.897,24.997 34.107,25.773 34.107,26.803 C34.107,27.705 35.559,28.737 36.877,29.642 C38.725,30.932 40.964,32.608 40.964,35.320 C40.964,37.514 39.516,39.448 37.536,40.094 L37.536,41.254 C37.536,42.286 36.877,43.060 35.953,43.060 C34.897,43.060 34.107,42.286 34.107,41.254 L34.107,40.094 C32.131,39.320 30.677,37.514 30.677,35.320 C30.677,34.287 31.469,33.514 32.395,33.514 C33.316,33.514 34.107,34.287 34.107,35.320 C34.107,36.224 34.897,37.126 35.953,37.126 C36.877,37.126 37.669,36.482 37.536,35.320 C37.536,34.287 36.086,33.382 34.768,32.350 C32.922,31.059 30.677,29.511 30.677,26.803 C30.677,24.481 32.131,22.544 34.107,21.902 L34.107,20.737 C34.107,19.832 34.897,19.059 35.953,19.059 C36.744,19.059 37.536,19.832 37.536,20.737 L37.536,21.902 C39.516,22.675 41.097,24.481 41.097,26.803 C41.097,27.705 40.172,28.480 39.252,28.480 Z"/>
</svg>